# xmcd
#
# Track frame offsets:
#   150
#   14573
#   24137
#   36147
#   46331
#   59978
#   72193
#   85341
#   97995
#   109693
#   122402
#   132938
#   148464
#   164607
#   179702
#   192734
#   209086
#   220408
#   233510
#   242883
#   254258
#   270236
#   287796
#   304014
#   318197
#   333197
#   342573
#
# Disc length: 4695 seconds
#
# Revision: 0
# Processed by: cddbd v1.5.1PL0 Copyright (c) Steve Scherf et al.
# Submitted via: Media_Universe 3.0
#
DISCID=a212551b
DTITLE=George Strait - Right Or Wrong/If You Aint Lovin You Aint Livin/Mixed
DYEAR=1900
DGENRE=Country
TTITLE0=You Look So Good In Love
TTITLE1=Right Or Wrong
TTITLE2=A Little Heavens Rubbing Off On Me
TTITLE3=80 Proof Bottle Of Tear Stopper
TTITLE4=Everytime It Rains (lord dont it pour)
TTITLE5=Youre The Cloud Im On (when im high)
TTITLE6=Lets Fall To Pieces Together
TTITLE7=Im Satisfied With You
TTITLE8=Our Paths May Never Cross
TTITLE9=Fifteen Years Going Up (and one night coming down)
TTITLE10=If You Aint Lovin You Aint Livin
TTITLE11=Under These Conditions
TTITLE12=Baby Blue
TTITLE13=Dont Mind If I Do
TTITLE14=Bigger Man Than Me
TTITLE15=Famous Last Words Of A Fool
TTITLE16=Its Too Late Now
TTITLE17=Is It That Time Again
TTITLE18=Lets Get Down To It
TTITLE19=Back To Bein Me
TTITLE20=I Cross My Heart
TTITLE21=I Hate Eerything
TTITLE22=If Tomorrow Never Comes
TTITLE23=Shes An Angel
TTITLE24=The Best Day Of My Life
TTITLE25=There Stands The Glass
TTITLE26=This Is The Big One
EXTD=
EXTT0=
EXTT1=
EXTT2=
EXTT3=
EXTT4=
EXTT5=
EXTT6=
EXTT7=
EXTT8=
EXTT9=
EXTT10=
EXTT11=
EXTT12=
EXTT13=
EXTT14=
EXTT15=
EXTT16=
EXTT17=
EXTT18=
EXTT19=
EXTT20=
EXTT21=
EXTT22=
EXTT23=
EXTT24=
EXTT25=
EXTT26=
PLAYORDER=
